<svg width="512" height="512" viewBox="0 0 512 512" fill="none" xmlns="http://www.w3.org/2000/svg">
  <defs>
    <linearGradient id="card" x1="64" y1="48" x2="448" y2="464" gradientUnits="userSpaceOnUse">
      <stop stop-color="#FFF7EE"/>
      <stop offset="1" stop-color="#F2E4D1"/>
    </linearGradient>
    <linearGradient id="coffee" x1="140" y1="156" x2="380" y2="372" gradientUnits="userSpaceOnUse">
      <stop stop-color="#5F3A23"/>
      <stop offset="1" stop-color="#2F1E14"/>
    </linearGradient>
    <linearGradient id="agent" x1="256" y1="82" x2="256" y2="224" gradientUnits="userSpaceOnUse">
      <stop stop-color="#24B8A8"/>
      <stop offset="1" stop-color="#167D74"/>
    </linearGradient>
  </defs>

  <rect x="28" y="28" width="456" height="456" rx="104" fill="url(#card)"/>

  <ellipse cx="256" cy="154" rx="132" ry="44" fill="#7A5439"/>
  <ellipse cx="256" cy="150" rx="116" ry="30" fill="#2F1E14"/>

  <path d="M140 156H372V284C372 345.856 321.856 396 260 396H252C190.144 396 140 345.856 140 284V156Z" fill="url(#coffee)"/>

  <path d="M366 212H392C423.48 212 449 237.52 449 269C449 300.48 423.48 326 392 326H366" stroke="#2F1E14" stroke-width="18" stroke-linecap="round"/>

  <rect x="178" y="412" width="156" height="18" rx="9" fill="#2F1E14" opacity="0.88"/>

  <path d="M206 126C206 107.2 220 97.8 220 82" stroke="url(#agent)" stroke-width="10" stroke-linecap="round"/>
  <path d="M256 126C256 107.2 270 97.8 270 82" stroke="url(#agent)" stroke-width="10" stroke-linecap="round"/>
  <path d="M306 126C306 107.2 320 97.8 320 82" stroke="url(#agent)" stroke-width="10" stroke-linecap="round"/>

  <circle cx="220" cy="76" r="8" fill="#24B8A8"/>
  <circle cx="270" cy="76" r="8" fill="#24B8A8"/>
  <circle cx="320" cy="76" r="8" fill="#24B8A8"/>

  <path d="M220 68V54H198" stroke="#24B8A8" stroke-width="6" stroke-linecap="round"/>
  <path d="M270 68V48H292" stroke="#24B8A8" stroke-width="6" stroke-linecap="round"/>
  <path d="M320 68V54H342" stroke="#24B8A8" stroke-width="6" stroke-linecap="round"/>

  <circle cx="192" cy="54" r="4.5" fill="#167D74"/>
  <circle cx="298" cy="48" r="4.5" fill="#167D74"/>
  <circle cx="348" cy="54" r="4.5" fill="#167D74"/>

  <circle cx="118" cy="248" r="7" fill="#24B8A8"/>
  <circle cx="394" cy="110" r="7" fill="#24B8A8"/>
  <path d="M125 248H146" stroke="#24B8A8" stroke-width="5" stroke-linecap="round"/>
  <path d="M387 110H366" stroke="#24B8A8" stroke-width="5" stroke-linecap="round"/>
</svg>
